<svg width="320" height="96" viewBox="0 0 320 96" fill="none" xmlns="http://www.w3.org/2000/svg">
  <defs>
    <linearGradient id="badgeGradient" x1="10" y1="8" x2="86" y2="88" gradientUnits="userSpaceOnUse">
      <stop stop-color="#F2A640"/>
      <stop offset="0.55" stop-color="#DF5135"/>
      <stop offset="1" stop-color="#B72F18"/>
    </linearGradient>
    <linearGradient id="sparkGradient" x1="42" y1="20" x2="62" y2="54" gradientUnits="userSpaceOnUse">
      <stop stop-color="#FFF2D2"/>
      <stop offset="1" stop-color="#FFD27A"/>
    </linearGradient>
    <filter id="shadow" x="0" y="0" width="104" height="104" filterUnits="userSpaceOnUse" color-interpolation-filters="sRGB">
      <feDropShadow dx="0" dy="10" stdDeviation="8" flood-color="#A33A20" flood-opacity="0.18"/>
    </filter>
  </defs>
  <g filter="url(#shadow)">
    <rect x="10" y="8" width="76" height="76" rx="22" fill="url(#badgeGradient)"/>
  </g>
  <path d="M29 51.5C29 40.1782 38.1782 31 49.5 31H55C58.866 31 62 34.134 62 38V41.5C62 45.366 58.866 48.5 55 48.5H45.5C42.4624 48.5 40 50.9624 40 54V61.5C40 64.5376 42.4624 67 45.5 67H58.5" stroke="white" stroke-width="8" stroke-linecap="round"/>
  <path d="M57 25L60.7149 33.2851L69 37L60.7149 40.7149L57 49L53.2851 40.7149L45 37L53.2851 33.2851L57 25Z" fill="url(#sparkGradient)"/>
  <path d="M108 58.5V27H120.939C123.646 27 126.017 27.5588 128.051 28.6765C130.116 29.7941 131.718 31.3657 132.858 33.3912C134.028 35.4167 134.614 37.7794 134.614 40.4794C134.614 43.2088 134.028 45.5863 132.858 47.6118C131.688 49.6078 130.042 51.1647 127.919 52.2824C125.796 53.3706 123.293 53.9147 120.412 53.9147H114.193V58.5H108ZM114.193 48.7706H120.281C122.61 48.7706 124.38 48.2559 125.59 47.2265C126.79 46.1971 127.391 44.6147 127.391 42.4794C127.391 40.3441 126.79 38.7618 125.59 37.7324C124.38 36.703 122.61 36.1882 120.281 36.1882H114.193V48.7706Z" fill="#24160F"/>
  <path d="M139.339 58.5V35.4382H145.954V39.0963C146.748 37.802 147.786 36.7765 149.067 36.0196C150.349 35.2333 151.851 34.8402 153.575 34.8402C155.31 34.8402 156.759 35.1966 157.922 35.9098C159.116 36.623 159.983 37.6623 160.523 39.0275C161.436 37.6923 162.6 36.6608 164.014 35.9333C165.443 35.2069 166.992 34.8436 168.662 34.8436C171.689 34.8436 174.013 35.7484 175.634 37.558C177.254 39.3382 178.064 41.9288 178.064 45.3294V58.5H171.449V46.4618C171.449 44.6824 171.099 43.3324 170.399 42.4118C169.698 41.4912 168.63 41.0304 167.194 41.0294C165.639 41.0294 164.371 41.5735 163.391 42.6618C162.425 43.75 161.942 45.2627 161.942 47.2V58.5H155.327V46.4618C155.327 44.6824 154.977 43.3324 154.277 42.4118C153.576 41.4912 152.508 41.0304 151.072 41.0294C149.547 41.0294 148.28 41.5735 147.27 42.6618C146.274 43.75 145.776 45.2627 145.776 47.2V58.5H139.339Z" fill="#24160F"/>
  <path d="M193.038 59.0971C190.688 59.0971 188.602 58.6049 186.779 57.6206C184.986 56.6069 183.579 55.2059 182.557 53.4176C181.536 51.6294 181.025 49.5598 181.025 47.2088C181.025 44.8873 181.536 42.8314 182.557 41.0412C183.579 39.2225 184.986 37.8078 186.779 36.7971C188.602 35.7578 190.688 35.2382 193.038 35.2382C196.74 35.2382 199.649 36.3343 201.765 38.5265C203.909 40.7186 204.982 43.8431 204.982 47.9V49.7265H187.64C187.847 51.2402 188.385 52.4255 189.255 53.2824C190.154 54.1098 191.333 54.5235 192.79 54.5235C193.902 54.5235 194.85 54.2863 195.633 53.8118C196.446 53.3078 197.058 52.6245 197.469 51.7618H204.243C203.585 54.05 202.273 55.9451 200.308 57.4471C198.37 58.949 195.946 59.7657 193.038 59.8971V59.0971ZM187.751 45.3029H198.59C198.472 43.9368 197.963 42.8485 197.063 42.0382C196.164 41.1985 195.001 40.7784 193.574 40.7784C192.237 40.7784 191.103 41.176 190.171 41.9711C189.268 42.7368 188.694 43.8474 188.448 45.3029H187.751Z" fill="#24160F"/>
  <path d="M209.329 58.5V27H215.944V45.3735L223.408 35.4382H231.122L222.537 46.2765L231.696 58.5H223.854L215.944 47.3059V58.5H209.329Z" fill="#24160F"/>
</svg>
